<?xml version="1.0" encoding="UTF-8"?>
<svg id="Capa_4" data-name="Capa 4" xmlns="http://www.w3.org/2000/svg" viewBox="0 0 1000 1000">
  <defs>
    <style>
      .cls-1 {
        font-size: 182.019px;
      }

      .cls-1, .cls-2, .cls-3 {
        fill: #fff;
      }

      .cls-1, .cls-3 {
        font-family: AvenirLTStd-Black, 'Avenir LT Std';
        font-weight: 800;
      }

      .cls-4 {
        letter-spacing: -.092em;
      }

      .cls-3 {
        font-size: 57.0294px;
      }
    </style>
  </defs>
  <text class="cls-1" transform="translate(174.1729 696.9912) scale(.9897 1)"><tspan x="0" y="0">TELLUS</tspan></text>
  <path class="cls-2" d="M497.7896,205.588c-19.1267,0-34.6319-15.5052-34.6319-34.6319s15.5052-34.6319,34.6319-34.6319,34.6319,15.5053,34.6319,34.6319-15.5053,34.6319-34.6319,34.6319Z"/>
  <circle class="cls-2" cx="497.7896" cy="170.9561" r="34.6319"/>
  <path class="cls-2" d="M208.9126,362.2172l6.7635-6.3368c-2.32,2.0768-4.5634,4.1956-6.7635,6.3368Z"/>
  <rect class="cls-2" x="483.1087" y="485.9922" width="0" height=".0608"/>
  <path class="cls-2" d="M501.1643,47.9304c-103.2476,0-198.4307,34.5182-274.6479,92.6381,14.6264,9.2534,24.8211,17.7478,31.8401,24.7765.0002-.0002.0005-.0004.0007-.0006,68.2379-49.4055,152.1213-78.53,242.8071-78.53,228.908,0,414.4744,185.5665,414.4744,414.4744s-185.5664,414.4743-414.4744,414.4743S86.6899,730.1965,86.6899,501.2888c0-64.3916,14.6896-125.3503,40.8914-179.717-10.8257-9.1475-20.2712-19.2065-28.5031-29.8972-32.7483,62.6898-51.2722,133.9876-51.2722,209.6142,0,250.3829,202.9754,453.3583,453.3583,453.3583s453.3583-202.9754,453.3583-453.3583S751.5472,47.9304,501.1643,47.9304Z"/>
  <path class="cls-2" d="M423.647,239.2103c-50.07-47.1249-96.699-34.6964-121.325-7.9297-4.3443,4.722-7.9769,9.9243-11.0263,15.3451l.0009-.0106s-35.2312-87.4952-152.0626-123.972c0,0-46.5211-14.8021-69.2531-31.1902,0,0-13.1997,211.1534,152.7878,255.9774l.024-.0101c-76.9099,70.1179-74.3074,185.1902-74.3074,185.1902,14.5378-31.9833,153.0439-105.8619,153.0439-105.8619,0,0,59.8694-36.8734,67.4027-86.4341,7.5332-49.5609,52.3363-77.315,78.5043-75.7291,26.1682,1.5861,85.6412-19.0313,85.6412-19.0313l-109.4305-6.3437ZM101.1713,140.0885c182.9125,59.2087,171.8109,171.9431,171.8109,171.9431-124.7612,35.5515-171.8109-171.9431-171.8109-171.9431ZM347.5216,308.9918c-8.194,32.7762-15.0665,63.4379-67.6671,95.6855-52.6005,32.2477-88.2843,55.5081-91.1919,61.0589,0,0,3.0532-79.3844,97.384-129.6718,12.1107-6.4563,20.2198-18.5897,21.1884-32.2796.2851-4.0304.4714-8.3377.4722-12.7158.0024-15.402,5.385-30.5143,16.0654-41.6116,13.1767-13.6907,35.0885-22.6969,68.9485.0614,0,0-37.0056,26.6968-45.1995,59.473Z"/>
  <rect class="cls-2" x="453.9902" y="456.8737" width="58.237" height=".0002" transform="translate(-96.3837 130.8122) rotate(-14.0362)"/>
  <path class="cls-2" d="M627.7826,200.028c-12.75.4363-24.3551,2.4243-34.9035,5.56h34.8127c.1327-3.5457.0908-5.56.0908-5.56Z"/>
  <path class="cls-2" d="M483.1088,485.9922v.0608h0v30.5319H192.9124c-6.4712,4.2348-12.7621,8.4805-18.739,12.6778v16.6838h647.2323v-29.3616h-308.9353v-30.5319c174.8931-8.5106,170.6378-173.191,170.6378-173.191-131.9145,3.8298-170.6378,114.8934-170.6378,114.8934v-73.7344c103.9831-15.176,114.2568-122.6573,115.2214-148.433h-34.8127c-23.016,6.8419-40.9954,19.155-54.819,32.7836l13.5281,1.6873c-13.4882,11.6258-25.5529,20.158-36.1077,26.4218-12.7397,19.9808-17.691,36.7003-17.691,36.7003,0,0-1.8552-6.2503-6.2014-15.6674-1.1371-2.4637-2.4422-5.1412-3.9321-7.9838-15.6037,5.1652-23.8716,3.8102-23.8716,3.8102,16.0597,24.2609,22.0107,45.8204,22.0107,45.8204-29.8865-4.2954-50.957-19.3915-65.6827-36.8882-7.0452,3.7407-13.5649,8.66-19.0272,14.7638,17.0847,22.5508,42.9401,41.2811,82.0234,46.9852v71.1505c-5.1032-12.5258-30.5875-67.6378-93.8093-95.7661-.0421.1326-.0796.2687-.1209.4019-1.4667,4.7307-2.4493,9.8195-2.8285,15.29-.2896,4.1791-.9352,8.2867-1.8651,12.317,63.5545,36.807,83.8793,99.277,83.8793,99.277-51.8003-6.317-83.4285-33.6029-102.3364-60.3318-5.9635,8.3639-12.659,15.9681-19.2872,22.6253,24.0081,33.7017,65.3142,63.2904,136.3682,67.0073M656.6427,338.8195s-20.2318,104.6774-128.4277,117.8719c0,0,29.4681-90.6031,128.4277-117.8719ZM607.621,223.3329s-15.4127,93.981-97.8371,105.8273c0,0,22.4489-81.3448,97.8371-105.8273Z"/>
  <text class="cls-3" transform="translate(296.0371 765.4473)"><tspan x="0" y="0">CONSU</tspan><tspan class="cls-4" x="207.9844" y="0">L</tspan><tspan x="233.3613" y="0">TORÍA</tspan></text>
  <g>
    <path class="cls-2" d="M500.8414,788.7186c10.7781,4.9129,21.1599,9.1165,32.7215,11.9407,4.1354,1.0102,10.9876.4187,11.449,5.4759.8227,9.0187.6419,27.5238-1.0012,36.2737-4.1002,21.8346-22.7409,36.7038-42.8479,43.4809-19.1542-6.015-37.6462-20.4231-42.6251-40.6701-3.1011-12.6109-.8668-26.5737-1.5648-39.4972.0167-1.4048,1.2562-2.9595,2.5313-3.3924,3.5609-1.2089,9.2504-1.6945,13.3123-2.7663,9.7412-2.5703,18.9155-6.6485,28.025-10.8453ZM533.452,812.1897c-11.2114-2.1983-22.1599-5.7106-32.281-10.9969-10.3347,5.1515-21.2987,8.811-32.6505,10.9969.4485,9.9841-1.2632,20.9718,1.1687,30.6932,3.7167,14.857,17.3084,25.5506,31.1415,30.5877,12.333-4.1928,24.6608-13.3236,29.7803-25.6093,4.651-11.1613,2.3829-23.8568,2.841-35.6716Z"/>
    <path class="cls-2" d="M513.5639,825.0664c3.0482-.6736,5.331,1.9952,3.9556,4.8176l-19.47,19.451c-1.4034.4312-2.5856.3083-3.8133-.4634-1.2139-.7629-7.6726-7.3118-8.703-8.6452-1.4489-1.8749-2.254-3.4641-.219-5.3162,4.0192-3.6578,8.1707,4.5073,11.2302,6.5681,1.1822,0,14.2428-15.7984,17.0195-16.412Z"/>
  </g>
</svg>