<?xml version="1.0" encoding="UTF-8"?>
<svg id="Capa_4" data-name="Capa 4" xmlns="http://www.w3.org/2000/svg" viewBox="0 0 1000 1000">
  <defs>
    <style>
      .cls-1 {
        fill: #fff;
      }
    </style>
  </defs>
  <g>
    <g>
      <path class="cls-1" d="M211.82,593.24h-36.39v-25.12h100.88v25.12h-36.39v103.75h-28.1v-103.75Z"/>
      <path class="cls-1" d="M291.62,568.12h86.65v26.21h-58.55v24.03h55.3v26.21h-55.3v26.21h61.79v26.21h-89.89v-128.87Z"/>
      <path class="cls-1" d="M405.11,568.12h28.1v102.66h52.06v26.21h-80.16v-128.87Z"/>
      <path class="cls-1" d="M501.84,568.12h28.1v102.66h52.06v26.21h-80.17v-128.87Z"/>
      <path class="cls-1" d="M705.04,647.3c0,30.4-18.38,52.97-53.68,52.97s-53.86-22.57-53.86-52.97v-79.18h28.1v78.09c0,15.84,10.81,27.85,25.76,27.85s25.58-12.01,25.58-27.85v-78.09h28.1v79.18Z"/>
      <path class="cls-1" d="M794.03,599.61c-4.5-5.82-13.51-8.55-20.36-8.55-7.93,0-18.92,3.64-18.92,13.29,0,23.48,58.73,8.37,58.73,53.51,0,28.76-22.88,42.41-49.18,42.41-16.39,0-30.8-4.92-42.87-16.2l20-22.21c5.76,7.64,15.13,12.2,24.5,12.2s19.46-4.37,19.46-13.47c0-23.66-59.81-10.92-59.81-53.88,0-27.49,23.6-41.87,48.64-41.87,14.41,0,28.28,3.82,39.09,13.47l-19.28,21.3Z"/>
    </g>
    <path class="cls-1" d="M497.79,205.59c-19.13,0-34.63-15.51-34.63-34.63s15.51-34.63,34.63-34.63,34.63,15.51,34.63,34.63-15.51,34.63-34.63,34.63Z"/>
    <circle class="cls-1" cx="497.79" cy="170.96" r="34.63"/>
    <path class="cls-1" d="M208.91,362.22l6.76-6.34c-2.32,2.08-4.56,4.2-6.76,6.34Z"/>
    <path class="cls-1" d="M501.16,47.93c-103.25,0-198.43,34.52-274.65,92.64,14.63,9.25,24.82,17.75,31.84,24.78,0,0,0,0,0,0,68.24-49.41,152.12-78.53,242.81-78.53,228.91,0,414.47,185.57,414.47,414.47s-185.57,414.47-414.47,414.47S86.69,730.2,86.69,501.29c0-64.39,14.69-125.35,40.89-179.72-10.83-9.15-20.27-19.21-28.5-29.9-32.75,62.69-51.27,133.99-51.27,209.61,0,250.38,202.98,453.36,453.36,453.36s453.36-202.98,453.36-453.36S751.55,47.93,501.16,47.93Z"/>
    <path class="cls-1" d="M423.65,239.21c-50.07-47.12-96.7-34.7-121.32-7.93-4.34,4.72-7.98,9.92-11.03,15.35h0s-35.23-87.51-152.06-123.98c0,0-46.52-14.8-69.25-31.19,0,0-13.2,211.15,152.79,255.98h.02c-76.91,70.11-74.31,185.18-74.31,185.18,14.54-31.98,153.04-105.86,153.04-105.86,0,0,59.87-36.87,67.4-86.43,7.53-49.56,52.34-77.32,78.5-75.73,26.17,1.59,85.64-19.03,85.64-19.03l-109.43-6.34ZM101.17,140.09c182.91,59.21,171.81,171.94,171.81,171.94-124.76,35.55-171.81-171.94-171.81-171.94ZM347.52,308.99c-8.19,32.78-15.07,63.44-67.67,95.69-52.6,32.25-88.28,55.51-91.19,61.06,0,0,3.05-79.38,97.38-129.67,12.11-6.46,20.22-18.59,21.19-32.28.29-4.03.47-8.34.47-12.72,0-15.4,5.39-30.51,16.07-41.61,13.18-13.69,35.09-22.7,68.95.06,0,0-37.01,26.7-45.2,59.47Z"/>
    <path class="cls-1" d="M512.47,516.58v-30.53c174.89-8.51,170.64-173.19,170.64-173.19-131.91,3.83-170.64,114.89-170.64,114.89v-73.73c103.98-15.18,114.26-122.66,115.22-148.43.13-3.55.09-5.56.09-5.56-12.75.44-24.36,2.42-34.9,5.56-23.02,6.84-41,19.15-54.82,32.78l13.53,1.69c-13.49,11.63-25.55,20.16-36.11,26.42-12.74,19.98-17.69,36.7-17.69,36.7,0,0-1.86-6.25-6.2-15.67-1.14-2.46-2.44-5.14-3.93-7.98-15.6,5.17-23.87,3.81-23.87,3.81,16.06,24.26,22.01,45.82,22.01,45.82-29.89-4.3-50.96-19.39-65.68-36.89-7.05,3.74-13.56,8.66-19.03,14.76,17.08,22.55,42.94,41.28,82.02,46.99v71.15c-5.1-12.53-30.59-67.64-93.81-95.77-.04.13-.08.27-.12.4-1.47,4.73-2.45,9.82-2.83,15.29-.29,4.18-.94,8.29-1.87,12.32,63.55,36.81,83.88,99.28,83.88,99.28-51.8-6.32-83.43-33.6-102.34-60.33-5.96,8.36-12.66,15.97-19.29,22.63,24.01,33.7,65.31,63.29,136.37,67.01v30.59H192.91c-6.47,4.23-12.76,8.48-18.74,12.68v16.68h647.23v-29.36h-308.94ZM656.64,338.82s-20.23,104.68-128.43,117.87c0,0,29.47-90.6,128.43-117.87ZM607.62,223.33s-15.41,93.98-97.84,105.83c0,0,22.45-81.34,97.84-105.83Z"/>
    <g>
      <path class="cls-1" d="M283.05,737.46c-2.19-2.61-5.37-4.1-9.47-4.1-8.34,0-14.48,6.78-14.48,16.11s6.15,16.11,14.13,16.11c4.45,0,8.05-1.98,10.31-5.37l9.18,6.85c-4.17,5.93-11.23,8.69-18.08,8.69-15.61,0-26.98-10.24-26.98-26.28s11.37-26.28,26.98-26.28c5.58,0,12.64,1.91,16.88,7.35l-8.48,6.92Z"/>
      <path class="cls-1" d="M323.04,723.19c15.61,0,26.98,10.24,26.98,26.28s-11.37,26.28-26.98,26.28-26.98-10.24-26.98-26.28,11.37-26.28,26.98-26.28ZM323.04,765.57c9.4,0,15.54-6.78,15.54-16.11s-6.15-16.11-15.54-16.11-15.54,6.78-15.54,16.11,6.15,16.11,15.54,16.11Z"/>
      <path class="cls-1" d="M357.52,724.46h14.98l21.26,34.76h.14v-34.76h11.02v50.01h-14.41l-21.83-35.6h-.14v35.6h-11.02v-50.01Z"/>
      <path class="cls-1" d="M439.82,736.68c-1.77-2.26-5.3-3.32-7.98-3.32-3.11,0-7.42,1.41-7.42,5.16,0,9.11,23.03,3.25,23.03,20.77,0,11.16-8.97,16.46-19.28,16.46-6.43,0-12.08-1.91-16.81-6.29l7.84-8.62c2.26,2.97,5.93,4.73,9.61,4.73s7.63-1.7,7.63-5.23c0-9.18-23.45-4.24-23.45-20.91,0-10.67,9.25-16.25,19.07-16.25,5.65,0,11.09,1.48,15.33,5.23l-7.56,8.27Z"/>
      <path class="cls-1" d="M497.82,755.19c0,11.8-7.21,20.56-21.05,20.56s-21.12-8.76-21.12-20.56v-30.73h11.02v30.3c0,6.15,4.24,10.81,10.1,10.81s10.03-4.66,10.03-10.81v-30.3h11.02v30.73Z"/>
      <path class="cls-1" d="M508.42,724.46h11.02v39.84h20.41v10.17h-31.43v-50.01Z"/>
      <path class="cls-1" d="M555.61,734.21h-14.27v-9.75h39.56v9.75h-14.27v40.26h-11.02v-40.26Z"/>
      <path class="cls-1" d="M610.79,723.19c15.61,0,26.98,10.24,26.98,26.28s-11.37,26.28-26.98,26.28-26.99-10.24-26.99-26.28,11.37-26.28,26.99-26.28ZM610.79,765.57c9.39,0,15.54-6.78,15.54-16.11s-6.15-16.11-15.54-16.11-15.54,6.78-15.54,16.11,6.15,16.11,15.54,16.11Z"/>
      <path class="cls-1" d="M645.27,724.46h19.36c10.24,0,18.86,3.53,18.86,15.19,0,6.99-3.74,12.43-10.81,13.7l12.71,21.12h-13.21l-10.45-19.99h-5.44v19.99h-11.02v-50.01ZM656.28,745.16h6.5c4.03,0,9.25-.14,9.25-5.58,0-5.02-4.52-5.79-8.55-5.79h-7.21v11.37Z"/>
      <path class="cls-1" d="M696.48,710.69h14.41l-12.22,10.17h-9.32l7.13-10.17ZM690.9,724.46h11.02v50.01h-11.02v-50.01Z"/>
      <path class="cls-1" d="M728.41,724.46h9.11l21.76,50.01h-12.43l-4.31-10.6h-19.43l-4.17,10.6h-12.15l21.61-50.01ZM732.65,739.01l-6.08,15.54h12.22l-6.15-15.54Z"/>
    </g>
  </g>
  <g>
    <path class="cls-1" d="M500.92,800.07c8.26,3.76,16.21,6.99,25.07,9.15,3.17.77,8.42.32,8.77,4.2.63,6.91.49,21.09-.77,27.8-3.14,16.73-17.43,28.13-32.83,33.32-14.68-4.61-28.85-15.65-32.66-31.16-2.38-9.66-.66-20.36-1.2-30.27.01-1.08.96-2.27,1.94-2.6,2.73-.93,7.09-1.3,10.2-2.12,7.46-1.97,14.49-5.09,21.48-8.31ZM525.91,818.06c-8.59-1.68-16.98-4.38-24.74-8.43-7.92,3.95-16.32,6.75-25.02,8.43.34,7.65-.97,16.07.9,23.52,2.85,11.38,13.26,19.58,23.86,23.44,9.45-3.21,18.9-10.21,22.82-19.62,3.56-8.55,1.83-18.28,2.18-27.33Z"/>
    <path class="cls-1" d="M510.67,827.93c2.34-.52,4.09,1.53,3.03,3.69l-14.92,14.91c-1.08.33-1.98.24-2.92-.36s-5.88-5.6-6.67-6.62c-1.11-1.44-1.73-2.65-.17-4.07,3.08-2.8,6.26,3.45,8.61,5.03.91,0,10.91-12.11,13.04-12.58Z"/>
  </g>
</svg>